<svg version="1.1" xmlns="http://www.w3.org/2000/svg" viewBox="-332.55180770798535 -11.588336103174784 573.6465921988153 23.774622122641922" fill="none" stroke="black" stroke-width="0.6%" vector-effect="non-scaling-stroke">
    <path d="M -330.47189 -7.00942 L -330.47189 5.98813 A 232 4.50505 180 0 0 -211.90522 4.72184" />
    <path d="M -156.16434 -10.10798 A 232 4.50505 360 0 1 -330.47189 -7.00942" />
    <path d="M -156.16434 -10.10798 L -156.16434 -9.08574" />
    <path d="M -331.55181 5.89333 L -330.47189 5.98813" />
    <path d="M -331.55181 -7.10422 L -330.47189 -7.00942" />
    <path d="M -331.55181 -7.10422 L -331.55181 5.89333" />
    <path d="M -156.16434 -10.10798 L -160.93249 -10.13723 A 227 4.40795 360 0 1 -331.55181 -7.10422" />
    <path d="M -211.90522 6.79775 A 226 4.38854 180 0 0 240.09478 6.79775 L 240.09478 -6.1998 A 226 4.38854 360 0 1 -211.90522 -6.1998 A 226 4.38854 360 0 1 47.60702 -10.53982 A 226 4.38854 360 0 1 240.09478 -6.1998" />
    <path d="M 17.80189 -6.67989 A 25 0.48546 360 0 1 39.09478 -6.1998 A 25 0.48546 360 0 1 -10.90522 -6.1998 A 25 0.48546 360 0 1 17.80189 -6.67989 Z" />
    <path d="M -211.90522 6.79775 L -211.90522 -6.1998" />
</svg>