<svg version="1.1" xmlns="http://www.w3.org/2000/svg" viewBox="-320.3434835572837 -12.09327338975183 547.3632690220691 26.086659379429534" fill="none" stroke="black" stroke-width="0.6%" vector-effect="non-scaling-stroke">
    <path d="M -245.40835 8.00064 L -245.40834 8.00064 L -245.40834 -4.99668 L -243.91991 -4.96642 L -243.91991 8.03089 A 232 4.71402 180 0 0 -227.99172 8.35469 L -163.78448 9.65994 A 226 4.59211 180 0 0 -155.76266 9.82301 L 0.19357 12.99338 L 7.2663 12.84974 L 7.2663 -0.14757 L -105.53798 -2.44073" />
    <path d="M -245.40835 -4.99668 L -245.40834 -4.99668" />
    <path d="M -245.40835 8.00064 L -245.40835 -4.99668" />
    <path d="M -294.89418 6.99466 L -245.40835 8.00064" />
    <path d="M -245.40834 8.00064 L -243.91991 8.03089" />
    <path d="M 7.2663 11.0859 A 226 4.59211 180 0 0 226.01978 6.49615 L 226.01978 -6.50117 A 226 4.59211 360 0 1 -105.53798 -2.44073" />
    <path d="M -319.34348 6.49764 L -296.71463 6.95765" />
    <path d="M -296.71463 6.95939 L -296.59777 6.96003 L -294.89417 6.99466" />
    <path d="M -294.89418 -6.00266 L -245.40835 -4.99668" />
    <path d="M -227.99172 -4.64262 A 232 4.71402 360 0 1 -243.91991 -4.96642" />
    <path d="M -227.99172 -4.64262 L -163.78448 -3.33738" />
    <path d="M -155.76266 -3.17431 A 226 4.59211 0 0 1 -163.78448 -3.33738" />
    <path d="M -155.76266 -3.17431 L 0.19357 -0.00393 L 7.2663 -0.14757" />
    <path d="M -193.08532 -8.88694 A 226 4.59211 360 0 1 226.01978 -6.50117" />
    <path d="M -266.62832 -7.43156 A 232 4.71402 0 0 1 -193.08532 -8.88694" />
    <path d="M -266.62832 -7.43156 L -276.76093 -7.37644 L -285.63764 -6.70394" />
    <path d="M -286.88638 -6.64282 A 232 4.71402 0 0 1 -285.63764 -6.70394" />
    <path d="M -286.88638 -6.64282 A 227 4.61243 360 0 1 -291.97418 -6.98953 L -296.8044 -6.96326 L -296.8044 -6.32891" />
    <path d="M -289.65468 -6.49779 A 232 4.71402 360 0 1 -296.8044 -6.96326" />
    <path d="M -293.57303 -6.26322 A 232 4.71402 0 0 1 -289.65468 -6.49779" />
    <path d="M -293.57303 -6.26322 L -312.27075 -6.64332 L -319.34348 -6.49968 L -296.69715 -6.03931" />
    <path d="M -296.71463 -6.03793 A 232 4.71402 0 0 1 -296.69715 -6.03931" />
    <path d="M -296.71463 -6.03793 L -296.59777 -6.03729 L -296.59777 6.96003" />
    <path d="M -296.59777 -6.03729 L -294.89417 -6.00266 L -294.89417 6.99466" />
    <path d="M -294.89417 -6.00266 L -294.89418 -6.00266" />
    <path d="M -259.31515 -7.47133 A 227 4.61243 0 0 1 -198.50223 -8.69572" />
    <path d="M -218.21035 -7.69492 A 226 4.59211 360 0 1 -198.50223 -8.69572" />
    <path d="M -218.21035 -7.69492 L -259.31515 -7.47133" />
    <path d="M -199.8637 -4.35824 A 226 4.59211 360 0 1 -216.07039 -5.15626" />
    <path d="M -199.8637 -4.35824 L -234.25409 -5.05735 L -216.07039 -5.15626" />
    <path d="M 17.69329 -6.14189 A 25 0.50798 0 0 1 -24.98022 -6.50117 A 25 0.50798 0 0 1 25.01978 -6.50117 A 25 0.50798 0 0 1 17.69329 -6.14189 Z" />
    <path d="M -294.89418 6.99466 L -294.89418 -6.00266" />
    <path d="M -227.99172 -4.64262 L -227.99172 8.35469" />
    <path d="M -216.07039 -4.6877 L -216.07039 -5.15626" />
    <path d="M -163.78448 9.65994 L -163.78448 -3.33738" />
    <path d="M -155.76266 9.82301 L -155.76266 -3.17431" />
    <path d="M 0.19357 12.99338 L 0.19357 -0.00393" />
    <path d="M -296.71463 -6.03793 L -296.71463 6.95939" />
    <path d="M -319.34348 6.49764 L -319.34348 -6.49968" />
</svg>