<svg version="1.1" xmlns="http://www.w3.org/2000/svg" viewBox="-329.2911155533105 -13.997443963238089 680.7521230684467 26.418693238971805" fill="none" stroke="black" stroke-width="0.6%" vector-effect="non-scaling-stroke">
    <path d="M -328.29111 7.31948 L -328.29111 -5.67837 L -303.40493 -4.49001 L -234.30049 -4.28728 L -190.08223 -5.27292 L -214.96842 -6.46129 L -284.07286 -6.66401 L -328.29111 -5.67837" />
    <path d="M -303.40493 8.50785 L -303.40493 -4.49001" />
    <path d="M -328.29111 7.31948 L -303.40493 8.50785 L -285.22201 8.56119" />
    <path d="M -234.30049 -4.07671 L -234.30049 -4.28728" />
    <path d="M -190.08223 -4.28514 L -190.08223 -5.27292" />
    <path d="M -169.75895 -3.38041 A 232 4.21388 0 0 1 -101.22694 -1.6089 L -101.22694 11.38896" />
    <path d="M -284.42472 -4.32029 L -285.22201 -4.23063 L -285.22201 8.76723" />
    <path d="M -285.22201 -4.23063 A 227 4.12306 0 0 1 -105.90057 -1.57661 L -105.90057 11.42125 A 227 4.12306 180 0 0 -285.22201 8.76723" />
    <path d="M -105.90057 -1.57661 L -101.22694 -1.6089" />
    <path d="M -173.65799 -3.39185 L -169.75895 -3.38041" />
    <path d="M -175.06213 -3.4589 L -173.65799 -3.39185" />
    <path d="M -284.42472 -4.32029 A 232 4.21388 0 0 1 -175.06213 -3.4589" />
    <path d="M -105.90057 11.42125 L -101.22694 11.38896" />
    <path d="M -37.72565 9.96071 A 226 4.1049 180 0 0 248.20708 6.00278 L 248.20708 -6.99507 A 226 4.1049 0 1 1 -203.79292 -6.99507 A 226 4.1049 0 0 1 164.96888 -10.17728 A 226 4.1049 0 0 1 248.20708 -6.99507" />
    <path d="M 37.99932 -7.34709 A 25 0.45408 360 0 1 47.20708 -6.99507 A 25 0.45408 360 1 1 -2.79292 -6.99507 A 25 0.45408 360 0 1 37.99932 -7.34709 Z" />
    <path d="M 350.46101 5.18645 L 350.46101 -7.8114 L 0.06084 -12.99744 L -6.25605 -12.85664 L 344.14411 -7.6706 L 350.46101 -7.8114" />
    <path d="M -6.25605 -11.06728 L -6.25605 -12.85664" />
    <path d="M 344.14411 5.32726 L 344.14411 -7.6706" />
    <path d="M 248.20708 3.90736 L 344.14411 5.32726 L 350.46101 5.18645" />
    <path d="M -37.72565 -1.69754 L -37.72565 11.30032" />
    <path d="M -220.92343 -4.40893 A 232 4.21388 0 0 1 -37.72565 -1.69754" />
    <path d="M -42.39928 11.33261 L -37.72565 11.30032" />
    <path d="M -42.39928 -1.66525 L -37.72565 -1.69754" />
    <path d="M -42.39928 -1.66525 L -42.39928 11.33261 A 227 4.12306 180 0 0 -101.22694 9.73043" />
    <path d="M -220.92343 -4.40893 L -221.72072 -4.31927 L -221.72072 -3.97931" />
    <path d="M -221.72072 -4.31927 A 227 4.12306 0 0 1 -42.39928 -1.66525" />
    <path d="M -203.79292 -5.92763 L -203.79292 -6.99507" />
</svg>