<svg version="1.1" xmlns="http://www.w3.org/2000/svg" viewBox="-334.67038067362773 -11.50500543235311 578.0021175503914 23.707289542403995" fill="none" stroke="black" stroke-width="0.6%" vector-effect="non-scaling-stroke">
    <path d="M -332.6247 -7.10018 L -332.6247 5.8974 A 232 4.47047 180 0 0 -209.66826 4.57815" />
    <path d="M -157.20335 -10.15136 A 232 4.47047 360 0 1 -332.6247 -7.10018" />
    <path d="M -157.20335 -10.15136 L -157.20335 -8.93998" />
    <path d="M -333.67038 5.80318 L -332.6247 5.8974" />
    <path d="M -333.67038 -7.19441 L -332.6247 -7.10018" />
    <path d="M -333.67038 -7.19441 L -333.67038 5.80318" />
    <path d="M -157.20335 -10.15136 L -161.96083 -10.18102 A 227 4.37412 360 0 1 -333.67038 -7.19441" />
    <path d="M -209.66826 6.84743 A 226 4.35485 180 0 0 242.33174 6.84743 L 242.33174 -6.15015 A 226 4.35485 360 0 1 -209.66826 -6.15015 A 226 4.35485 360 0 1 51.40919 -10.45223 A 226 4.35485 360 0 1 242.33174 -6.15015" />
    <path d="M 20.21198 -6.62605 A 25 0.48173 360 0 1 41.33174 -6.15015 A 25 0.48173 360 0 1 -8.66826 -6.15015 A 25 0.48173 360 0 1 20.21198 -6.62605 Z" />
    <path d="M -209.66826 6.84743 L -209.66826 -6.15015" />
</svg>