<svg version="1.1" xmlns="http://www.w3.org/2000/svg" viewBox="-93.50068548046144 -13.133854645586041 126.28888806741209 26.336542602799867" fill="none" stroke="black" stroke-width="0.6%" vector-effect="non-scaling-stroke">
    <path d="M 31.7882 5.78309 L 31.7882 -7.20238 L 31.00194 -10.51149 L -30.00915 -12.13385 L -90.23397 -10.44711 L -90.22182 -10.39596 L -92.50068 -10.39475 L -92.50068 -10.39475 L -92.50068 2.59071 A 232 10.96804 180 0 0 -89.82831 4.24566 L -89.44771 5.84747 L -80.34384 6.08955 A 232 10.96804 180 0 0 27.94896 12.20269 L 27.94896 12.20269" />
    <path d="M -28.43662 -3.17928 L -28.43662 -5.51563 L 31.7882 -7.20238" />
    <path d="M 27.94896 5.89062 L 27.94897 5.89062" />
    <path d="M 30.40032 5.82196 L 31.7882 5.78309" />
    <path d="M 27.94897 12.20269 L 30.40032 11.99665" />
    <path d="M -89.82831 -8.7398 A 232 10.96804 0 0 1 -92.50068 -10.39475" />
    <path d="M -89.82831 -8.7398 L -89.44771 -7.13799 L -80.34384 -6.89591 L -80.34384 6.08955" />
    <path d="M 27.94896 -0.78278 A 232 10.96804 0 0 1 -80.34384 -6.89591" />
    <path d="M 27.94896 -0.78278 L 27.94896 -0.78278" />
    <path d="M 27.94897 -0.78278 L 30.40032 -0.98882 L 30.40032 11.99665" />
    <path d="M 30.40032 -0.98882 A 227 10.73166 0 0 1 -73.74181 -6.72035 L -28.43662 -5.51563" />
    <path d="M -90.23397 -10.39596 L -90.23397 -10.44711" />
    <path d="M 27.94897 -0.78278 L 27.94897 12.20269" />
    <path d="M -89.44771 5.84747 L -89.44771 -7.13799" />
    <path d="M -89.82831 -8.7398 L -89.82831 4.24566" />
    <path d="M 27.94896 -0.78278 L 27.94896 12.20269" />
</svg>