<svg version="1.1" xmlns="http://www.w3.org/2000/svg" viewBox="-277.98318218524525 -13.520220341279586 560.1504002963741 26.010999673392927" fill="none" stroke="black" stroke-width="0.6%" vector-effect="non-scaling-stroke">
    <path d="M 275.05524 -8.96075 L 275.05524 -6.62832" />
    <path d="M 83.46665 -11.28956 A 232 3.90533 0 0 1 275.05524 -8.96075" />
    <path d="M 270.49319 -8.92629 L 275.05524 -8.96075" />
    <path d="M 270.49319 -8.92629 L 270.49319 -6.68377" />
    <path d="M 83.46665 -11.28956 L 82.95848 -11.20582 L 82.95848 -9.83101" />
    <path d="M 82.95848 -11.20582 A 227 3.82117 0 0 1 270.49319 -8.92629" />
    <path d="M 178.25376 -8.02279 L 178.25376 -7.80497" />
    <path d="M -13.33483 -10.3516 A 232 3.90533 0 0 1 178.25376 -8.02279" />
    <path d="M 173.69171 -7.98833 L 178.25376 -8.02279" />
    <path d="M 173.69171 -7.98833 L 173.69171 -7.86042" />
    <path d="M -13.33483 -10.3516 L -13.843 -10.26786 L -13.843 -10.13995" />
    <path d="M -13.843 -10.26786 A 227 3.82117 0 0 1 173.69171 -7.98833" />
    <path d="M 77.86947 -9.87982 L 77.86947 -11.32541 L 49.21147 -12.40047 L -20.42611 -12.52022 L -61.4057 -11.56491 L -32.7477 -10.48985 L 36.88988 -10.3701 L 77.86947 -11.32541" />
    <path d="M -61.4057 -10.71809 L -61.4057 -11.56491" />
    <path d="M -32.7477 -10.36974 L -32.7477 -10.48985" />
    <path d="M 36.88988 -10.17869 L 36.88988 -10.3701" />
    <path d="M -91.13618 -9.05552 L -91.13618 -10.87184 L 275.31299 -6.41756 L 281.16722 -6.55403 L -85.28195 -11.00831 L -91.13618 -10.87184" />
    <path d="M 275.31299 6.5806 L 275.31299 -6.41756" />
    <path d="M 175.01682 5.36148 L 275.31299 6.5806 L 281.16722 6.44413 L 281.16722 -6.55403" />
    <path d="M -276.98318 7.68645 A 226 3.80433 180 0 0 175.01682 7.68645 L 175.01682 -5.31171 A 226 3.80433 0 0 1 -276.98318 -5.31171 A 226 3.80433 0 0 1 81.32234 -8.39599 A 226 3.80433 0 0 1 175.01682 -5.31171" />
    <path d="M -36.34761 -5.65289 A 25 0.42083 360 0 1 -25.98318 -5.31171 A 25 0.42083 360 0 1 -75.98318 -5.31171 A 25 0.42083 360 0 1 -36.34761 -5.65289 Z" />
    <path d="M -276.98318 7.68645 L -276.98318 -5.31171" />
</svg>