<svg version="1.1" xmlns="http://www.w3.org/2000/svg" viewBox="-330.04384214503114 -12.065012592525973 682.1343307306847 24.58864567134713" fill="none" stroke="black" stroke-width="0.6%" vector-effect="non-scaling-stroke">
    <path d="M -232.392 -4.17004 L -232.392 8.82783 A 232 4.2021 180 0 0 -48.83491 11.52363 L -48.04953 11.43419" />
    <path d="M -48.83491 -1.47424 A 232 4.2021 0 0 1 -232.392 -4.17004" />
    <path d="M -48.83491 -1.47424 L -48.83491 11.52363" />
    <path d="M -227.72268 -4.20244 L -232.392 -4.17004" />
    <path d="M -48.83491 -1.47424 L -48.04953 -1.56368 L -48.04953 11.43419" />
    <path d="M -48.04953 -1.56368 A 227 4.11153 0 0 1 -227.72268 -4.20244" />
    <path d="M -191.16233 -5.06888 L -191.16233 -3.04098" />
    <path d="M -7.60524 -2.37308 A 232 4.2021 0 0 1 -191.16233 -5.06888" />
    <path d="M -7.60524 -2.37308 L -7.60524 10.62479 L -6.81985 10.53534" />
    <path d="M -48.04953 10.44806 A 232 4.2021 180 0 0 -7.60524 10.62479" />
    <path d="M -186.493 -5.10128 L -191.16233 -5.06888" />
    <path d="M -7.60524 -2.37308 L -6.81985 -2.46252 L -6.81985 10.53534" />
    <path d="M -6.81985 -2.46252 A 227 4.11153 0 0 1 -186.493 -5.10128" />
    <path d="M -329.04384 7.34972 L -329.04384 -5.64815 L -304.00001 -4.46419 L -234.86887 -4.26505 L -190.78155 -5.24986 L -215.82538 -6.43381 L -284.95652 -6.63296 L -329.04384 -5.64815" />
    <path d="M -304.00001 8.53367 L -304.00001 -4.46419" />
    <path d="M -329.04384 7.34972 L -304.00001 8.53367 L -234.86887 8.73282 L -232.392 8.67749" />
    <path d="M -234.86887 8.73282 L -234.86887 -4.26505" />
    <path d="M -190.78155 -5.07152 L -190.78155 -5.24986" />
    <path d="M 351.09049 5.15578 L 342.90284 5.33868 L 342.90284 -4.65968 L 247.15706 -6.06585" />
    <path d="M 247.15706 3.93251 L 342.90284 5.33868" />
    <path d="M 351.09049 -4.84257 L 342.90284 -4.65968" />
    <path d="M 351.09049 5.15578 L 351.09049 -4.84257 L 247.15706 -6.36899" />
    <path d="M -6.81985 10.08821 A 226 4.09342 180 0 0 247.15706 6.02628 L 247.15706 -6.97159 A 226 4.09342 0 0 1 -204.84294 -6.97159 A 226 4.09342 0 0 1 -154.38665 -9.5497 A 226 4.09342 0 0 1 247.15706 -6.97159" />
    <path d="M 1.73851 -7.25678 A 25 0.45281 0 0 1 46.15706 -6.97159 A 25 0.45281 0 0 1 -3.84294 -6.97159 A 25 0.45281 0 0 1 1.73851 -7.25678 Z" />
    <path d="M -204.84294 -5.91462 L -204.84294 -6.97159" />
</svg>