<svg version="1.1" xmlns="http://www.w3.org/2000/svg" viewBox="-389.2438128875506 -13.00443365193522 717.1407904964886 26.094682956553875" fill="none" stroke="black" stroke-width="0.6%" vector-effect="non-scaling-stroke">
    <path d="M -327.36397 -4.57831 L -327.36397 -3.83543" />
    <path d="M -116.05651 -3.21586 A 232 2.98746 360 0 1 -327.36397 -4.57831" />
    <path d="M -116.05651 -3.21586 L -116.05651 -2.15533" />
    <path d="M -248.49054 9.38889 A 232 2.98746 180 0 0 -186.08357 9.70909" />
    <path d="M -323.18959 -4.61375 L -327.36397 -4.57831" />
    <path d="M -116.05651 -3.21586 L -116.35325 -3.28013 A 227 2.92307 360 0 1 -323.18959 -4.61375" />
    <path d="M 302.97958 5.20765 A 226 2.91019 180 0 0 326.89698 3.90468 L 326.89698 -9.09424 A 226 2.91019 0 0 1 302.97958 -7.79127 A 226 2.91019 0 0 1 -125.10302 -9.09424 A 226 2.91019 0 1 1 326.89698 -9.09424" />
    <path d="M 62.29367 6.77211 A 226 2.91019 180 0 0 302.97958 5.20765" />
    <path d="M 122.36401 -9.25923 A 25 0.32192 360 0 1 125.89698 -9.09424 A 25 0.32192 360 0 1 103.4985 -8.77406" />
    <path d="M 82.49086 -8.23381 L 103.4985 -8.77406" />
    <path d="M 82.49086 -8.23381 L 69.55616 -8.28824 L 89.70383 -8.80638 L 89.69715 -8.77856 L 89.69048 -8.75074 L 89.6838 -8.72292 L 89.67713 -8.6951 L 89.67046 -8.66728 L 89.66379 -8.63946 L 89.65712 -8.61164 L 89.65045 -8.58382 L 89.64378 -8.556 L 89.63711 -8.52818 L 89.63045 -8.50036 L 89.62378 -8.47254 L 89.61712 -8.44472 L 89.61046 -8.4169" />
    <path d="M 89.70383 -8.80638 A 25 0.32192 0 0 1 75.89698 -9.09424 A 25 0.32192 0 0 1 112.09013 -9.38209 L 132.2378 -9.90023 L 133.4044 -9.54315" />
    <path d="M 132.2378 -9.90023 L 143.37165 -9.79948" />
    <path d="M 122.36401 -9.25923 L 143.37165 -9.79948" />
    <path d="M 111.95154 -8.8055 L 111.96145 -8.84668 L 111.97136 -8.88787 L 111.98127 -8.92905 L 111.99118 -8.97024 L 112.00108 -9.01142 L 112.01099 -9.05261 L 112.02089 -9.09379 L 112.03078 -9.13498 L 112.04068 -9.17617 L 112.05057 -9.21735 L 112.06047 -9.25854 L 112.07035 -9.29972 L 112.08024 -9.34091 L 112.09013 -9.38209" />
    <path d="M 132.03993 -9.50806 L 132.2378 -9.90023" />
    <path d="M 122.30973 -8.92808 L 122.31362 -8.95177 L 122.31751 -8.97544 L 122.3214 -8.99912 L 122.32528 -9.02279 L 122.32916 -9.04645 L 122.33304 -9.07011 L 122.33692 -9.09377 L 122.34079 -9.11742 L 122.34467 -9.14106 L 122.34854 -9.16471 L 122.35241 -9.18834 L 122.35628 -9.21198 L 122.36014 -9.2356 L 122.36401 -9.25923" />
    <path d="M -149.02019 12.03259 L -149.02019 -0.96633 L -140.07848 -0.90867 L 62.29367 -6.1131 L 53.35196 -6.17075 L -149.02019 -0.96633" />
    <path d="M -140.07848 12.09025 L -140.07848 -0.90867" />
    <path d="M -149.02019 12.03259 L -140.07848 12.09025 L 62.29367 6.88583 L 62.29367 -6.1131" />
    <path d="M -248.49054 9.88511 L -248.49054 -3.11381 L -287.02636 -3.86631 L -356.90299 -3.81282 L -388.24381 -3.00683 L -349.708 -2.25432 L -279.83136 -2.30781 L -248.49054 -3.11381" />
    <path d="M -388.24381 9.9921 L -388.24381 -3.00683" />
    <path d="M -349.708 10.7446 L -349.708 -2.25432" />
    <path d="M -388.24381 9.9921 L -349.708 10.7446 L -279.83136 10.69111 L -248.49054 9.88511" />
    <path d="M -279.83136 10.69111 L -279.83136 -2.30781" />
    <path d="M -183.33085 -1.18463 L -183.33085 11.81429 A 232 2.98746 180 0 0 -149.02019 11.46683" />
    <path d="M -77.52574 -3.90563 A 232 2.98746 360 0 1 -76.95507 -3.69622 L -76.95507 -2.81963" />
    <path d="M -76.95507 -3.69622 A 232 2.98746 360 0 1 -183.33085 -1.18463" />
    <path d="M -186.08357 11.76053 L -183.33085 11.81429" />
    <path d="M -186.08357 -1.23839 L -183.33085 -1.18463" />
    <path d="M -186.08357 -1.23839 L -186.08357 11.76053" />
    <path d="M -77.52574 -3.90563 L -82.51722 -3.90181 L -82.51722 -3.49063" />
    <path d="M -82.51722 -3.90181 A 227 2.92307 360 0 1 -81.95507 -3.69622 A 227 2.92307 360 0 1 -186.08357 -1.23839" />
    <path d="M -125.10302 -3.27437 L -125.10302 -9.09424" />
</svg>