<svg version="1.1" xmlns="http://www.w3.org/2000/svg" viewBox="-98.99982417482374 -13.186714397216083 181.28169218835055 24.636128075076044" fill="none" stroke="black" stroke-width="0.6%" vector-effect="non-scaling-stroke">
    <path d="M -58.62834 6.70641 L -58.62834 -6.27948 L -25.82163 -3.39932 L 44.13347 -3.28256 L 81.28187 -6.04598 L 48.47516 -8.92614 L -21.47994 -9.04289 L -58.62834 -6.27948" />
    <path d="M -25.82163 9.58657 L -25.82163 -3.39932" />
    <path d="M -58.62834 6.70641 L -25.82163 9.58657 L 44.13347 9.70333 L 81.28187 6.93992 L 81.28187 -6.04598" />
    <path d="M 44.13347 9.70333 L 44.13347 -3.28256" />
    <path d="M -87.26793 -2.54482 A 232 10.80593 0 0 1 38.14328 -11.87396" />
    <path d="M -87.26793 -2.54482 L -87.26793 10.44107 L -82.27084 10.44941" />
    <path d="M 40.48676 -11.66822 L 38.14328 -11.87396" />
    <path d="M 40.48676 -11.66822 L 40.48676 -8.93947" />
    <path d="M -87.26793 -2.54482 L -82.27084 -2.53648 L -82.27084 10.44941" />
    <path d="M -82.27084 -2.53648 A 227 10.57305 0 0 1 40.48676 -11.66822" />
    <path d="M -58.62834 6.00684 A 227 10.57305 180 0 0 -82.27084 10.44941" />
    <path d="M -97.99982 -2.85757 A 232 10.80593 0 0 1 27.41139 -12.18671" />
    <path d="M -97.99982 -2.85757 L -97.99982 10.12832 L -93.00273 10.13666" />
    <path d="M 29.75487 -11.98098 L 27.41139 -12.18671" />
    <path d="M 29.75487 -11.98098 L 29.75487 -11.66174" />
    <path d="M -97.99982 -2.85757 L -93.00273 -2.84923 L -93.00273 10.13666" />
    <path d="M -93.00273 -2.84923 A 227 10.57305 0 0 1 29.75487 -11.98098" />
    <path d="M -87.26793 8.02317 A 227 10.57305 180 0 0 -93.00273 10.13666" />
</svg>