<svg version="1.1" xmlns="http://www.w3.org/2000/svg" viewBox="-227.00000100000005 -12.094248982632203 454.000002 24.188497965264403" fill="none" stroke="black" stroke-width="0.6%" vector-effect="non-scaling-stroke">
    <path d="M 159.80596 9.74823 A 226 4.59559 180 0 0 226 6.49866 L 226 -6.49866 A 226 4.59559 360 0 1 159.80596 -3.24908 A 226 4.59559 360 0 1 -226 -6.49866 A 226 4.59559 360 0 1 226 -6.49866" />
    <path d="M -226 6.49866 A 226 4.59559 180 0 0 159.80596 9.74823" />
    <path d="M 17.67765 -6.13919 A 25 0.50836 360 0 1 -25 -6.49866 A 25 0.50836 360 0 1 25 -6.49866 A 25 0.50836 360 0 1 17.67765 -6.13919 Z" />
    <path d="M -226 6.49866 L -226 -6.49866" />
</svg>