<svg version="1.1" xmlns="http://www.w3.org/2000/svg" viewBox="-159.35030990890158 -12.970394448734202 454.000002 24.77987868024637" fill="none" stroke="black" stroke-width="0.6%" vector-effect="non-scaling-stroke">
    <path d="M -3.64094 -11.96705 L -3.64094 -7.25732" />
    <path d="M 124.30508 -9.22991 A 232 3.19611 360 0 1 -3.64094 -11.96705" />
    <path d="M 124.30508 -9.22991 L 124.30508 -7.31686" />
    <path d="M 1.35347 -11.97039 L -3.64094 -11.96705" />
    <path d="M 124.30508 -9.22991 L 126.59224 -9.29117 L 126.59224 -7.30853" />
    <path d="M 126.59224 -9.29117 A 227 3.12723 360 0 1 1.35347 -11.97039" />
    <path d="M 190.01008 10.31368 A 226 3.11345 180 0 0 293.64969 7.69603 L 293.64969 -4.30283 A 226 3.11345 360 0 1 190.01008 -1.68518 A 226 3.11345 360 0 1 -158.35031 -4.30283 A 226 3.11345 360 0 1 293.64969 -4.30283" />
    <path d="M -158.35031 7.69603 A 226 3.11345 180 0 0 190.01008 10.31368" />
    <path d="M 81.18513 -4.01327 A 25 0.34441 360 0 1 42.64969 -4.30283 A 25 0.34441 360 0 1 92.64969 -4.30283 A 25 0.34441 360 0 1 81.18513 -4.01327 Z" />
    <path d="M -158.35031 7.69603 L -158.35031 -4.30283" />
</svg>