<svg version="1.1" xmlns="http://www.w3.org/2000/svg" viewBox="-30.042577505843898 -13.626005845904047 78.82452297757084 27.559855903479544" fill="none" stroke="black" stroke-width="0.6%" vector-effect="non-scaling-stroke">
    <path d="M -4.23853 -0.04734 A 232 12.47582 360 0 1 -16.64947 -4.07317 A 232 12.47582 360 0 1 44.05386 -12.48711" />
    <path d="M -4.23853 -0.04734 L -4.23853 12.93385 L 0.51138 12.84983" />
    <path d="M -11.88173 11.42427 A 232 12.47582 180 0 0 -4.23853 12.93385" />
    <path d="M 47.78194 -12.30791 L 44.05386 -12.48711" />
    <path d="M 47.78194 -12.30791 L 47.78194 0.67328 A 227 12.20694 180 0 0 0.51138 4.96622" />
    <path d="M -4.23853 -0.04734 L 0.51138 -0.13136 L 0.51138 12.84983" />
    <path d="M 0.51138 -0.13136 A 227 12.20694 360 0 1 -11.64947 -4.07317 A 227 12.20694 360 0 1 47.78194 -12.30791" />
    <path d="M -16.63164 -0.18624 A 232 12.47582 360 0 1 -29.04258 -4.21206 L -29.04258 8.76913 A 232 12.47582 180 0 0 -16.63164 12.79495 L -11.88173 12.71093" />
    <path d="M -29.04258 -4.21206 A 232 12.47582 360 0 1 31.66075 -12.626" />
    <path d="M -16.63164 -0.18624 L -16.63164 12.79495" />
    <path d="M 35.38883 -12.44681 L 31.66075 -12.626" />
    <path d="M 35.38883 -12.44681 L 35.38883 -11.94672" />
    <path d="M -16.63164 -0.18624 L -11.88173 -0.27026 L -11.88173 12.71093" />
    <path d="M -11.88173 -0.27026 A 227 12.20694 360 0 1 -24.04258 -4.21206 A 227 12.20694 360 0 1 35.38883 -12.44681" />
    <path d="M -16.64947 -4.07317 L -16.64947 -1.12207" />
</svg>