<svg version="1.1" xmlns="http://www.w3.org/2000/svg" viewBox="-347.5436038600353 -10.410977409553324 639.401170235205 23.03703667523555" fill="none" stroke="black" stroke-width="0.6%" vector-effect="non-scaling-stroke">
    <path d="M -346.5436 -9.40644 L -346.5436 3.59194 A 232 3.66242 180 0 0 -216.82847 6.71026 L -214.58111 6.63975" />
    <path d="M -216.82847 -6.28812 A 232 3.66242 360 0 1 -346.5436 -9.40644" />
    <path d="M -216.82847 -6.28812 L -216.82847 6.71026" />
    <path d="M -341.55156 -9.41098 L -346.5436 -9.40644" />
    <path d="M -216.82847 -6.28812 L -214.58111 -6.35863 L -214.58111 6.63975" />
    <path d="M -214.58111 -6.35863 A 227 3.58349 360 0 1 -341.55156 -9.41098" />
    <path d="M 188.90984 11.04055 A 226 3.5677 180 0 0 290.85757 8.05835 L 290.85757 -4.94003 A 226 3.5677 360 0 1 188.90984 -1.95783 A 226 3.5677 360 0 1 -161.14243 -4.94003 A 226 3.5677 360 0 1 290.85757 -4.94003" />
    <path d="M -161.14243 8.05835 A 226 3.5677 180 0 0 188.90984 11.04055" />
    <path d="M 78.58016 -4.61014 A 25 0.39466 360 0 1 39.85757 -4.94003 A 25 0.39466 360 0 1 89.85757 -4.94003 A 25 0.39466 360 0 1 78.58016 -4.61014 Z" />
    <path d="M -161.14243 8.05835 L -161.14243 -4.94003" />
</svg>