<svg version="1.1" xmlns="http://www.w3.org/2000/svg" viewBox="-327.7597774100777 -13.927207655836298 682.6591448997426 27.852101780216465" fill="none" stroke="black" stroke-width="0.6%" vector-effect="non-scaling-stroke">
    <path d="M -1.72091 -12.91239 L -1.72091 -12.24817" />
    <path d="M 148.4856 -9.62472 A 232 4.18082 360 0 1 -1.72091 -12.91239" />
    <path d="M 148.4856 -9.62472 L 148.4856 -9.44744" />
    <path d="M 3.2113 -12.92721 L -1.72091 -12.91239" />
    <path d="M 148.4856 -9.62472 L 150.23955 -9.7091 L 150.23955 -9.42678" />
    <path d="M 150.23955 -9.7091 A 227 4.09072 360 0 1 3.2113 -12.92721" />
    <path d="M -181.6169 -9.54872 A 232 4.18082 360 0 1 0.82094 -12.25556" />
    <path d="M -181.6169 -9.54872 L -181.6169 -7.64897" />
    <path d="M 1.64327 -12.16668 L 0.82094 -12.25556" />
    <path d="M 1.64327 -12.16668 L 1.64327 -10.07763" />
    <path d="M -181.6169 -9.54872 L -176.93431 -9.51712 L -176.93431 -7.83106" />
    <path d="M -176.93431 -9.51712 A 227 4.09072 360 0 1 1.64327 -12.16668" />
    <path d="M -326.75978 4.85405 L -326.75978 -8.14384 L -315.24784 -6.89956 L -249.6955 -6.45708 L -195.65509 -7.25888 L -207.16703 -8.50316 L -272.71937 -8.94564 L -326.75978 -8.14384" />
    <path d="M -315.24784 6.09833 L -315.24784 -6.89956" />
    <path d="M -326.75978 4.85405 L -315.24784 6.09833 L -249.6955 6.54081 L -200.28648 5.80773" />
    <path d="M -249.6955 6.54081 L -249.6955 -6.45708" />
    <path d="M -195.65509 -6.84837 L -195.65509 -7.25888" />
    <path d="M 4.95273 12.92489 L 4.95273 -0.073 L 353.89937 -5.25033 L 347.54321 -5.38945 L -1.40343 -0.21212 L 4.95273 -0.073" />
    <path d="M 353.89937 7.74756 L 353.89937 -5.25033" />
    <path d="M 4.95273 12.92489 L 353.89937 7.74756" />
    <path d="M -1.40343 12.78577 L -1.40343 -0.21212" />
    <path d="M -1.40343 12.78577 L 4.95273 12.92489" />
    <path d="M -200.28648 6.96979 A 226 4.0727 180 0 0 -1.40343 11.01307" />
    <path d="M -117.93557 -9.17224 A 226 4.0727 360 0 1 251.71352 -6.02809 A 226 4.0727 360 0 1 -200.28648 -6.02809 A 226 4.0727 360 0 1 -117.93557 -9.17224 Z" />
    <path d="M 9.82314 -6.3759 A 25 0.45052 360 0 1 50.71352 -6.02809 A 25 0.45052 360 0 1 0.71352 -6.02809 A 25 0.45052 360 0 1 9.82314 -6.3759 Z" />
    <path d="M 251.71352 -3.96763 L 251.71352 -6.02809" />
    <path d="M -200.28648 6.96979 L -200.28648 -6.02809" />
</svg>