<svg version="1.1" xmlns="http://www.w3.org/2000/svg" viewBox="-111.37314271707676 -10.704846662067514 225.01495231732036 23.847255801311725" fill="none" stroke="black" stroke-width="0.6%" vector-effect="non-scaling-stroke">
    <path d="M -39.15339 -7.93817 L -103.08838 -6.67049 L -110.37314 -3.57393 L -53.72291 -1.74504 L 10.21208 -3.01272 L 17.49685 -6.10929 L -39.15339 -7.93817 Z" />
    <path d="M -110.37314 9.41321 L -110.37314 -3.57393" />
    <path d="M -53.72291 11.24209 L -53.72291 -1.74504" />
    <path d="M -110.37314 9.41321 L -53.72291 11.24209 L -38.4566 10.9394" />
    <path d="M 10.21208 -2.6559 L 10.21208 -3.01272" />
    <path d="M 17.49685 -2.91713 L 17.49685 -6.10929" />
    <path d="M -26.17311 -0.84473 L -26.17311 12.14241 A 232 10.31893 180 0 0 112.64181 3.63603" />
    <path d="M 112.64181 -9.3511 A 232 10.31893 360 0 1 -26.17311 -0.84473" />
    <path d="M 112.64181 -9.3511 L 112.64181 3.63603" />
    <path d="M -28.20903 11.93927 L -26.17311 12.14241" />
    <path d="M -28.20903 -1.04786 L -26.17311 -0.84473" />
    <path d="M -28.20903 -1.04786 L -28.20903 11.93927" />
    <path d="M 112.64181 -9.3511 L 107.66866 -9.37425 A 227 10.09653 360 0 1 -28.20903 -1.04786" />
    <path d="M -36.42068 -1.17533 L -36.42068 11.81181 A 232 10.31893 180 0 0 -28.20903 11.64518" />
    <path d="M 102.39424 -9.6817 A 232 10.31893 360 0 1 -36.42068 -1.17533" />
    <path d="M 102.39424 -9.6817 L 102.39424 -7.95946" />
    <path d="M -38.4566 11.60867 L -36.42068 11.81181" />
    <path d="M -38.4566 -1.37846 L -36.42068 -1.17533" />
    <path d="M -38.4566 -1.37846 L -38.4566 11.60867" />
    <path d="M 102.39424 -9.6817 L 97.42109 -9.70485 A 227 10.09653 360 0 1 -38.4566 -1.37846" />
</svg>