<svg version="1.1" xmlns="http://www.w3.org/2000/svg" viewBox="-260.22401975738643 -13.240861846824155 612.3347988193099 25.5740156249166" fill="none" stroke="black" stroke-width="0.6%" vector-effect="non-scaling-stroke">
    <path d="M 48.30391 -11.74093 L 48.30391 -11.42705" />
    <path d="M 231.84133 -9.04469 A 232 4.20209 360 0 1 48.30391 -11.74093" />
    <path d="M 231.84133 -9.04469 L 231.84133 -8.21132" />
    <path d="M 52.97347 -11.77332 L 48.30391 -11.74093" />
    <path d="M 231.84133 -9.04469 L 232.62737 -9.13413 L 232.62737 -8.20816" />
    <path d="M 232.62737 -9.13413 A 227 4.11153 360 0 1 52.97347 -11.77332" />
    <path d="M 63.84544 -10.76325 L 63.84544 -9.45473" />
    <path d="M 247.38286 -8.06701 A 232 4.20209 360 0 1 63.84544 -10.76325" />
    <path d="M 247.38286 -8.06701 L 247.38286 4.93085 L 248.1689 4.84141" />
    <path d="M 192.77598 4.65768 A 232 4.20209 180 0 0 247.38286 4.93085" />
    <path d="M 68.515 -10.79564 L 63.84544 -10.76325" />
    <path d="M 247.38286 -8.06701 L 248.1689 -8.15646 L 248.1689 4.84141" />
    <path d="M 248.1689 -8.15646 A 227 4.11153 360 0 1 68.515 -10.79564" />
    <path d="M 60.34576 -9.48422 L 60.34576 -10.85754 L 35.31057 -12.04155 L -33.81912 -12.24086 L -77.91362 -11.25616 L -52.87843 -10.07215 L 16.25126 -9.87284 L 60.34576 -10.85754" />
    <path d="M -77.91362 -9.77071 L -77.91362 -11.25616" />
    <path d="M -52.87843 -9.83603 L -52.87843 -10.07215" />
    <path d="M 16.25126 -9.75225 L 16.25126 -9.87284" />
    <path d="M 351.11078 5.15747 L 342.9218 5.34034 L 342.9218 -4.65802 L 248.1689 -6.04998" />
    <path d="M 248.1689 3.94838 L 342.9218 5.34034" />
    <path d="M 351.11078 -4.84089 L 342.9218 -4.65802" />
    <path d="M 351.11078 5.15747 L 351.11078 -4.84089 L 248.1689 -6.35315" />
    <path d="M -259.22402 7.23974 A 226 4.09341 180 1 0 192.77598 7.23974 L 192.77598 -5.75813 A 226 4.09341 360 0 1 -259.22402 -5.75813 A 226 4.09341 360 0 1 109.13823 -8.93731 A 226 4.09341 360 0 1 192.77598 -5.75813" />
    <path d="M -17.47598 -6.10981 A 25 0.45281 360 0 1 -8.22402 -5.75813 A 25 0.45281 360 0 1 -58.22402 -5.75813 A 25 0.45281 360 0 1 -17.47598 -6.10981 Z" />
    <path d="M -259.22402 7.23974 L -259.22402 -5.75813" />
</svg>