<svg version="1.1" xmlns="http://www.w3.org/2000/svg" viewBox="-392.5817333876845 -13.193011410181207 738.2108133282634 25.86221405131859" fill="none" stroke="black" stroke-width="0.6%" vector-effect="non-scaling-stroke">
    <path d="M -331.41913 -3.19089 L -331.41913 -3.11675" />
    <path d="M -238.05055 -5.65597 A 232 2.6344 360 0 1 -236.14671 -5.31917 A 232 2.6344 360 0 1 -331.41913 -3.19089" />
    <path d="M -334.40938 -3.2364 L -331.41913 -3.19089" />
    <path d="M -334.40938 -3.2364 L -334.40938 -3.13136" />
    <path d="M -238.05055 -5.65597 L -243.01641 -5.64932 L -243.01641 -4.98902" />
    <path d="M -243.01641 -5.64932 A 227 2.57762 360 0 1 -241.14671 -5.31917 A 227 2.57762 360 0 1 -334.40938 -3.2364" />
    <path d="M -379.14055 -2.85445 L -379.14055 -2.76665" />
    <path d="M -285.77197 -5.31954 A 232 2.6344 360 0 1 -283.86813 -4.98274 A 232 2.6344 360 0 1 -379.14055 -2.85445" />
    <path d="M -382.1308 -2.89996 L -379.14055 -2.85445" />
    <path d="M -382.1308 -2.89996 L -382.1308 -2.74131" />
    <path d="M -285.77197 -5.31954 L -290.73783 -5.31289 L -290.73783 -4.65259" />
    <path d="M -290.73783 -5.31289 A 227 2.57762 360 0 1 -288.86813 -4.98274 A 227 2.57762 360 0 1 -382.1308 -2.89996" />
    <path d="M -319.07634 11.44136 L -319.07634 -1.5578 L -262.97236 -2.03314 L -271.17307 -2.82253 L -335.47776 -3.13658 L -391.58173 -2.66124 L -383.38102 -1.87185 L -319.07634 -1.5578" />
    <path d="M -262.97236 -1.86689 L -262.97236 -2.03314" />
    <path d="M -319.07634 11.44136 L -281.60994 11.12393" />
    <path d="M -391.58173 10.33792 L -391.58173 -2.66124" />
    <path d="M -383.38102 11.12731 L -383.38102 -1.87185" />
    <path d="M -391.58173 10.33792 L -383.38102 11.12731 L -319.07634 11.44136" />
    <path d="M -272.42355 11.6692 L -272.42355 -1.32996 L -93.8386 -6.0449 L -103.02498 -6.08976 L -281.60994 -1.37482 L -272.42355 -1.32996" />
    <path d="M -93.8386 6.95426 L -93.8386 -6.0449" />
    <path d="M -272.42355 11.6692 L -93.8386 6.95426" />
    <path d="M -281.60994 11.62434 L -281.60994 -1.37482" />
    <path d="M -281.60994 11.62434 L -272.42355 11.6692" />
    <path d="M -93.8386 4.24709 A 226 2.56627 180 0 0 344.62908 3.37242 L 344.62908 -9.62674 A 226 2.56627 0 1 1 -107.37092 -9.62674 A 226 2.56627 0 0 1 207.92155 -11.98421 A 226 2.56627 0 0 1 344.62908 -9.62674" />
    <path d="M 128.50657 -9.88753 A 25 0.28388 0 0 1 143.62908 -9.62674 A 25 0.28388 0 1 1 93.62908 -9.62674 A 25 0.28388 0 0 1 128.50657 -9.88753 Z" />
    <path d="M -236.14671 -5.31917 L -236.14671 -2.57513" />
    <path d="M -283.86813 -4.98274 L -283.86813 -3.81401" />
    <path d="M -107.37092 -5.97502 L -107.37092 -9.62674" />
</svg>