<svg version="1.1" xmlns="http://www.w3.org/2000/svg" viewBox="-403.31897788837836 -10.837667417318368 715.0690483410935 22.24822946221566" fill="none" stroke="black" stroke-width="0.6%" vector-effect="non-scaling-stroke">
    <path d="M -401.20159 -6.92146 L -401.20159 6.07686 A 232 3.72119 180 0 0 -228.12489 3.49603" />
    <path d="M -228.12489 -9.5023 A 232 3.72119 0 0 1 -401.20159 -6.92146" />
    <path d="M -228.12489 -9.5023 L -228.12489 3.49603" />
    <path d="M -402.31898 5.99869 L -401.20159 6.07686" />
    <path d="M -402.31898 -6.99964 L -401.20159 -6.92146" />
    <path d="M -402.31898 -6.99964 L -402.31898 5.99869" />
    <path d="M -228.12489 -9.5023 L -232.90446 -9.52586 A 227 3.64099 0 0 1 -402.31898 -6.99964" />
    <path d="M 307.91345 7.35814 A 226 3.62495 180 0 0 310.75007 6.78561 L 310.75007 -6.21272 A 226 3.62495 0 0 1 307.91345 -5.64019 A 226 3.62495 0 0 1 -141.24993 -6.21272 A 226 3.62495 0 0 1 310.75007 -6.21272" />
    <path d="M -141.24993 6.78561 A 226 3.62495 180 0 0 307.91345 7.35814" />
    <path d="M 109.43628 -6.14938 A 25 0.40099 0 0 1 59.75007 -6.21272 A 25 0.40099 0 0 1 109.75007 -6.21272 A 25 0.40099 0 0 1 109.43628 -6.14938 Z" />
    <path d="M -141.24993 6.78561 L -141.24993 -6.21272" />
</svg>