<svg version="1.1" xmlns="http://www.w3.org/2000/svg" viewBox="-158.60311469198962 -10.96808314864021 454.000002 23.685353904528302" fill="none" stroke="black" stroke-width="0.6%" vector-effect="non-scaling-stroke">
    <path d="M -3.64654 -9.96465 L -3.64654 -7.82657" />
    <path d="M 44.3503 -7.9828 A 232 3.4495 360 0 1 -3.64654 -9.96465" />
    <path d="M 1.34844 -9.96808 L -3.64654 -9.96465" />
    <path d="M 50.26097 -7.99103 A 227 3.37516 360 0 1 1.34844 -9.96808" />
    <path d="M 190.3023 11.1865 A 226 3.36029 180 0 0 294.39689 8.35698 L 294.39689 -4.64158 A 226 3.36029 360 0 1 190.3023 -1.81206 A 226 3.36029 360 0 1 -157.60311 -4.64158 A 226 3.36029 360 0 1 294.39689 -4.64158" />
    <path d="M -157.60311 8.35698 A 226 3.36029 180 0 0 190.3023 11.1865" />
    <path d="M 81.882 -4.32858 A 25 0.37171 360 0 1 43.39689 -4.64158 A 25 0.37171 360 0 1 93.39689 -4.64158 A 25 0.37171 360 0 1 81.882 -4.32858 Z" />
    <path d="M -157.60311 8.35698 L -157.60311 -4.64158" />
</svg>