<svg version="1.1" xmlns="http://www.w3.org/2000/svg" viewBox="-21.864577636400075 -13.945250274364803 58.721899843011755 27.65729171926302" fill="none" stroke="black" stroke-width="0.6%" vector-effect="non-scaling-stroke">
    <path d="M 31.96158 -0.26879 A 232 12.59388 360 0 1 -20.86458 -8.26914 A 232 12.59388 360 0 1 -4.27957 -12.94525" />
    <path d="M 31.96158 -0.26879 L 31.96158 12.71204 L 35.85732 12.54188" />
    <path d="M -20.86458 4.71169 A 232 12.59388 180 0 0 31.96158 12.71204" />
    <path d="M 0.383 -12.84719 L -4.27957 -12.94525" />
    <path d="M 0.383 -12.84719 L 0.383 -3.69109" />
    <path d="M 31.96158 -0.26879 L 35.85732 -0.43895 L 35.85732 12.54188" />
    <path d="M 35.85732 -0.43895 A 227 12.32246 360 0 1 -15.86458 -8.26914 A 227 12.32246 360 0 1 0.383 -12.84719" />
    <path d="M -20.86458 -8.26914 L -20.86458 4.71169" />
</svg>