<svg version="1.1" xmlns="http://www.w3.org/2000/svg" viewBox="-389.9899938895951 -13.014972903306843 718.8579993373675 25.874349720994132" fill="none" stroke="black" stroke-width="0.6%" vector-effect="non-scaling-stroke">
    <path d="M -249.26406 9.91527 L -249.26406 -3.08367 L -287.98688 -3.82977 L -357.84985 -3.77376 L -388.98999 -2.97164 L -350.26717 -2.22554 L -280.4042 -2.28155 L -249.26406 -3.08367" />
    <path d="M -388.98999 10.02729 L -388.98999 -2.97164" />
    <path d="M -350.26717 10.77339 L -350.26717 -2.22554" />
    <path d="M -388.98999 10.02729 L -350.26717 10.77339 L -280.4042 10.71738 L -249.26406 9.91527" />
    <path d="M -280.4042 10.71738 L -280.4042 -2.28155" />
    <path d="M -240.20189 -3.51003 A 232 2.96833 360 0 1 -328.58401 -4.53342 L -328.58401 -3.79722" />
    <path d="M -240.20189 -3.51003 L -240.20189 9.48891" />
    <path d="M -249.26406 9.42587 A 232 2.96833 180 0 0 -240.20189 9.48891" />
    <path d="M -116.93868 -3.18836 L -117.25141 -3.25222 A 227 2.90436 360 0 1 -324.41847 -4.56881 L -328.58401 -4.53342" />
    <path d="M -236.26005 -3.51319 L -240.20189 -3.51003" />
    <path d="M -234.07522 -3.47109 L -236.26005 -3.51319" />
    <path d="M -116.93868 -3.18836 A 232 2.96833 360 0 1 -234.07522 -3.47109 L -234.07522 9.52784 L -236.26005 9.48575 L -240.20189 9.48891" />
    <path d="M -236.26005 9.48575 L -236.26005 -3.51319" />
    <path d="M -234.07522 9.52784 A 232 2.96833 180 0 0 -187.41002 9.73865" />
    <path d="M -116.93868 -3.18836 L -116.93868 -3.0117" />
    <path d="M 304.27373 5.16187 A 226 2.89156 180 0 0 327.868 3.87553 L 327.868 -9.12341 A 226 2.89156 0 0 1 304.27373 -7.83707 A 226 2.89156 0 0 1 -124.132 -9.12341 A 226 2.89156 0 1 1 327.868 -9.12341" />
    <path d="M 22.62232 6.5835 A 226 2.89156 180 0 0 304.27373 5.16187" />
    <path d="M 124.25802 -8.98111 A 25 0.31986 0 0 1 76.868 -9.12341 A 25 0.31986 0 1 1 126.868 -9.12341 A 25 0.31986 0 0 1 124.25802 -8.98111 Z" />
    <path d="M -178.45402 11.85938 L -178.45402 -1.13956 L 22.62232 -6.31893 L 13.66631 -6.37585 L -187.41002 -1.19648 L -178.45402 -1.13956" />
    <path d="M 22.62232 6.68 L 22.62232 -6.31893" />
    <path d="M -178.45402 11.85938 L 22.62232 6.68" />
    <path d="M -187.41002 11.80246 L -187.41002 -1.19648" />
    <path d="M -187.41002 11.80246 L -178.45402 11.85938" />
    <path d="M -309.63281 -5.02157 L -309.63281 -4.30959" />
    <path d="M -97.98748 -3.67651 A 232 2.96833 360 0 1 -309.63281 -5.02157" />
    <path d="M -97.98748 -3.67651 L -97.98748 -3.49984" />
    <path d="M -305.46727 -5.05696 L -309.63281 -5.02157" />
    <path d="M -97.98748 -3.67651 L -98.30021 -3.74037 A 227 2.90436 360 0 1 -305.46727 -5.05696" />
    <path d="M -124.132 -3.73486 L -124.132 -9.12341" />
</svg>