<svg version="1.1" xmlns="http://www.w3.org/2000/svg" viewBox="-85.42764977518368 -210.8872444885552 440.5834808405581 550.0293785384312" fill="none" stroke="black" stroke-width="0.6%" vector-effect="non-scaling-stroke">
    <path d="M 207.24576 127.43176 L 208.68831 104.75832 L 208.79485 91.26486" />
    <path d="M 207.24576 115.61289 L 208.79485 91.26486" />
    <path d="M 207.24576 127.43176 L 207.24576 115.61289" />
    <path d="M 145.71815 141.33476 L 207.24576 127.43176" />
    <path d="M 99.29279 129.47774 L 145.71815 141.33476 L 145.71815 129.5159 L 207.24576 115.61289" />
    <path d="M 125.66614 -106.14911 A 226 198.80562 104.40302 0 1 209.77607 -105.16778 A 226 198.80562 104.40302 0 1 97.34515 332.62588 A 226 198.80562 104.40302 0 1 -43.91374 166.74422" />
    <path d="M -46.04812 149.7218 A 226 198.80562 104.40302 0 1 125.66614 -106.14911" />
    <path d="M 95.86394 116.78315 L 99.29279 129.47774" />
    <path d="M 95.86394 116.78315 L 208.79485 91.26486" />
    <path d="M 95.86394 116.78315 L 145.71815 129.5159" />
    <path d="M 119.67788 -107.68697 A 226 198.80562 284.40302 0 0 -52.28556 145.20147" />
    <path d="M -50.30348 162.63406 A 226 198.80562 284.40302 0 0 91.35689 331.08802" />
    <path d="M 203.78781 -106.70564 A 226 198.80562 284.40302 0 0 119.67788 -107.68697" />
    <path d="M -10.54735 -196.08223 L -10.54735 -207.9011 L 119.92812 -107.74334" />
    <path d="M -10.54735 -196.08223 L 108.40289 -104.77167" />
    <path d="M 128.96489 -109.53979 L -1.75769 -209.88724 L -10.54735 -207.9011" />
    <path d="M 28.42927 183.28165 A 232 96.62405 360 0 1 -84.42765 100.37232 L -84.42765 112.19119 A 232 96.62405 180 0 0 28.42927 195.10052 L 31.04325 193.3252" />
    <path d="M -84.42765 100.37232 A 232 96.62405 360 0 1 -84.26656 96.7722" />
    <path d="M 28.42927 183.28165 L 28.42927 195.10052" />
    <path d="M -79.26802 96.82736 L -84.26656 96.7722" />
    <path d="M -79.26802 96.82736 L -79.26802 103.91728" />
    <path d="M 28.42927 183.28165 L 31.04325 181.50633 L 31.04325 193.3252" />
    <path d="M 31.04325 181.50633 A 227 94.54164 360 0 1 -79.42765 100.37232 A 227 94.54164 360 0 1 -79.26802 96.82736" />
    <path d="M 209.77607 -105.16778 L 203.78781 -106.70564" />
    <path d="M 97.34515 332.62588 L 91.35689 331.08802" />
</svg>