<svg version="1.1" xmlns="http://www.w3.org/2000/svg" viewBox="-329.29111764984225 -13.997443963575302 680.752127078224 26.51479683625358" fill="none" stroke="black" stroke-width="0.6%" vector-effect="non-scaling-stroke">
    <path d="M -190.08224 -4.45815 L -190.08224 -5.27292 L -214.96842 -6.46129 L -284.07286 -6.66401 L -328.29112 -5.67837 L -303.40493 -4.49001 L -234.30049 -4.28728 L -190.08224 -5.27292" />
    <path d="M -328.29112 7.31948 L -328.29112 -5.67837" />
    <path d="M -303.40493 8.50785 L -303.40493 -4.49001" />
    <path d="M -328.29112 7.31948 L -303.40493 8.50785 L -234.30049 8.71057 L -231.83627 8.65565" />
    <path d="M -234.30049 8.71057 L -234.30049 -4.28728" />
    <path d="M -231.83627 -4.19189 L -231.83627 8.80596 A 232 4.21388 180 0 0 -48.63849 11.51735 L -47.8412 11.42769" />
    <path d="M -48.63849 -1.4805 A 232 4.21388 0 0 1 -231.83627 -4.19189" />
    <path d="M -48.63849 -1.4805 L -48.63849 11.51735" />
    <path d="M -227.16264 -4.22418 L -231.83627 -4.19189" />
    <path d="M -48.63849 -1.4805 L -47.8412 -1.57016 L -47.8412 11.42769" />
    <path d="M -47.8412 -1.57016 A 227 4.12306 0 0 1 -227.16264 -4.22418" />
    <path d="M -19.53308 10.03706 A 226 4.1049 180 0 0 248.20708 6.00278 L 248.20708 -6.99507 A 226 4.1049 0 0 1 -203.79292 -6.99507 A 226 4.1049 0 0 1 164.96888 -10.17728 A 226 4.1049 0 0 1 248.20708 -6.99507" />
    <path d="M 37.99932 -7.34709 A 25 0.45408 0 0 1 47.20708 -6.99507 A 25 0.45408 0 0 1 -2.79292 -6.99507 A 25 0.45408 0 0 1 37.99932 -7.34709 Z" />
    <path d="M -6.25605 -11.06728 L -6.25605 -12.85664 L 344.14411 -7.6706 L 350.46101 -7.8114 L 0.06084 -12.99744 L -6.25605 -12.85664" />
    <path d="M 344.14411 5.32726 L 344.14411 -7.6706" />
    <path d="M 248.20708 3.90736 L 344.14411 5.32726 L 350.46101 5.18645 L 350.46101 -7.8114" />
    <path d="M -203.52814 -4.80076 L -203.52814 -3.37508" />
    <path d="M -20.33036 -2.08937 A 232 4.21388 0 0 1 -203.52814 -4.80076" />
    <path d="M -20.33036 -2.08937 L -20.33036 10.90848 L -19.53308 10.81882" />
    <path d="M -47.8412 10.80197 A 232 4.21388 180 0 0 -20.33036 10.90848" />
    <path d="M -198.85452 -4.83305 L -203.52814 -4.80076" />
    <path d="M -20.33036 -2.08937 L -19.53308 -2.17903 L -19.53308 10.81882" />
    <path d="M -19.53308 -2.17903 A 227 4.12306 0 0 1 -198.85452 -4.83305" />
    <path d="M -203.79292 -5.92763 L -203.79292 -6.99507" />
</svg>