<svg version="1.1" xmlns="http://www.w3.org/2000/svg" viewBox="-347.3720307776307 -9.986200696280731 631.8005430593639 22.4548241108661" fill="none" stroke="black" stroke-width="0.6%" vector-effect="non-scaling-stroke">
    <path d="M -346.37203 -5.91771 L -346.37203 4.08093 A 232 3.82728 180 0 0 -209.01701 7.25327 L -206.94638 7.17819" />
    <path d="M -209.01701 -2.74537 A 232 3.82728 360 0 1 -346.37203 -5.91771" />
    <path d="M -209.01701 -2.74537 L -209.01701 7.25327" />
    <path d="M -341.39507 -5.92567 L -346.37203 -5.91771" />
    <path d="M -209.01701 -2.74537 L -206.94638 -2.82045 L -206.94638 7.17819" />
    <path d="M -206.94638 -2.82045 A 227 3.74479 360 0 1 -341.39507 -5.92567" />
    <path d="M 188.78715 10.77418 A 226 3.7283 180 0 0 283.42851 7.74033 L 283.42851 -5.2579 A 226 3.7283 360 0 1 188.78715 -2.22405 A 226 3.7283 360 0 1 -168.57149 -5.2579 A 226 3.7283 360 0 1 283.42851 -5.2579" />
    <path d="M -168.57149 7.74033 A 226 3.7283 180 0 0 188.78715 10.77418" />
    <path d="M 71.95933 -4.9223 A 25 0.41242 360 0 1 32.42851 -5.2579 A 25 0.41242 360 0 1 82.42851 -5.2579 A 25 0.41242 360 0 1 71.95933 -4.9223 Z" />
    <path d="M -168.57149 7.74033 L -168.57149 -5.2579" />
</svg>