<svg version="1.1" xmlns="http://www.w3.org/2000/svg" viewBox="-378.68177694914783 -8.41309094160242 706.7854466056398 21.339513837502874" fill="none" stroke="black" stroke-width="0.6%" vector-effect="non-scaling-stroke">
    <path d="M -268.00955 -4.66172 A 232 3.04688 360 0 1 -377.68178 -7.25064 A 232 3.04688 360 0 1 -377.35177 -7.41309" />
    <path d="M -268.00955 -4.66172 L -268.00955 5.33742 L -265.32739 5.28199" />
    <path d="M -377.68178 2.7485 A 232 3.04688 180 0 0 -268.00955 5.33742" />
    <path d="M -372.356 -7.4103 L -377.35177 -7.41309" />
    <path d="M -372.356 -7.4103 L -372.356 -7.09098" />
    <path d="M -268.00955 -4.66172 L -265.32739 -4.71714 L -265.32739 5.28199" />
    <path d="M -265.32739 -4.71714 A 227 2.98121 360 0 1 -372.68178 -7.25064 A 227 2.98121 360 0 1 -372.356 -7.4103" />
    <path d="M 205.67244 11.5896 A 226 2.96808 180 0 0 327.10367 8.95834 L 327.10367 -4.04054 A 226 2.96808 360 0 1 205.67244 -1.40928 A 226 2.96808 360 0 1 -124.89633 -4.04054 A 226 2.96808 360 0 1 327.10367 -4.04054" />
    <path d="M -124.89633 8.95834 A 226 2.96808 180 0 0 205.67244 11.5896" />
    <path d="M 112.67101 -3.74947 A 25 0.32833 360 0 1 76.10367 -4.04054 A 25 0.32833 360 0 1 126.10367 -4.04054 A 25 0.32833 360 0 1 112.67101 -3.74947 Z" />
    <path d="M -377.68178 -7.25064 L -377.68178 2.7485" />
    <path d="M -124.89633 8.95834 L -124.89633 -4.04054" />
</svg>