<svg version="1.1" xmlns="http://www.w3.org/2000/svg" viewBox="-259.2714518263905 -13.998295552285086 610.521786992811 26.324582977075835" fill="none" stroke="black" stroke-width="0.6%" vector-effect="non-scaling-stroke">
    <path d="M 67.60396 -10.93178 L 67.60396 -9.46516" />
    <path d="M 250.7218 -8.21638 A 232 4.21734 0 0 1 67.60396 -10.93178" />
    <path d="M 250.7218 -8.21638 L 250.7218 4.78147 L 251.52173 4.69174" />
    <path d="M 193.72855 4.48582 A 232 4.21734 180 0 0 250.7218 4.78147" />
    <path d="M 72.27854 -10.96405 L 67.60396 -10.93178" />
    <path d="M 250.7218 -8.21638 L 251.52173 -8.30611 L 251.52173 4.69174" />
    <path d="M 251.52173 -8.30611 A 227 4.12645 0 0 1 72.27854 -10.96405" />
    <path d="M 69.06715 -11.39008 L 69.06715 -10.94188" />
    <path d="M 252.185 -8.67468 A 232 4.21734 0 0 1 69.06715 -11.39008" />
    <path d="M 252.185 -8.67468 L 252.185 4.32317 L 252.98493 4.23345" />
    <path d="M 251.52173 4.32133 A 232 4.21734 180 0 0 252.185 4.32317" />
    <path d="M 73.74173 -11.42235 L 69.06715 -11.39008" />
    <path d="M 252.185 -8.67468 L 252.98493 -8.7644 L 252.98493 4.23345" />
    <path d="M 252.98493 -8.7644 A 227 4.12645 0 0 1 73.74173 -11.42235" />
    <path d="M 61.85148 -9.51486 L 61.85148 -10.88979 L 37.00032 -12.07938 L -32.09813 -12.28294 L -76.34543 -11.29693 L -51.49427 -10.10734 L 17.60418 -9.90377 L 61.85148 -10.88979" />
    <path d="M -76.34543 -9.80923 L -76.34543 -11.29693" />
    <path d="M -51.49427 -9.87322 L -51.49427 -10.10734" />
    <path d="M 17.60418 -9.78681 L 17.60418 -9.90377" />
    <path d="M -6.31799 -12.20699 L -6.31799 -12.85743 L 343.92929 -7.66372 L 350.25033 -7.80458 L 0.00306 -12.99829 L -6.31799 -12.85743" />
    <path d="M 343.92929 5.33413 L 343.92929 -7.66372" />
    <path d="M 252.98493 3.98554 L 343.92929 5.33413 L 350.25033 5.19327 L 350.25033 -7.80458" />
    <path d="M -258.27145 7.21802 A 226 4.10827 180 0 0 193.72855 7.21802 L 193.72855 -5.77984 A 226 4.10827 0 1 1 -258.27145 -5.77984 A 226 4.10827 0 0 1 -207.39509 -8.37669 A 226 4.10827 0 0 1 193.72855 -5.77984" />
    <path d="M -51.64353 -6.0671 A 25 0.45445 0 0 1 -7.27145 -5.77984 A 25 0.45445 0 1 1 -57.27145 -5.77984 A 25 0.45445 0 0 1 -51.64353 -6.0671 Z" />
    <path d="M -258.27145 7.21802 L -258.27145 -5.77984" />
</svg>