<svg version="1.1" xmlns="http://www.w3.org/2000/svg" viewBox="-109.81889783848442 -213.10750612041494 443.37105571989844 536.3119423465245" fill="none" stroke="black" stroke-width="0.6%" vector-effect="non-scaling-stroke">
    <path d="M 147.50511 115.26291 L 147.50511 103.32168 L 161.05329 97.63734 L 147.71009 87.11105 L 128.12465 88.03268 L 127.64983 87.6581" />
    <path d="M 151.81431 118.66238 L 151.81431 106.72115 L 147.50511 103.32168" />
    <path d="M 151.81431 118.66238 L 147.50511 115.26291" />
    <path d="M 147.71009 99.05228 L 147.71009 87.11105" />
    <path d="M 151.17187 101.78324 L 147.71009 99.05228 L 135.22 99.64002 L 128.12465 91.66614 L 127.64983 87.6581" />
    <path d="M 203.19128 96.46116 L 184.75468 104.42806" />
    <path d="M 156.10163 116.80973 L 151.81431 118.66238" />
    <path d="M 203.19128 84.51994 L 151.81431 106.72115" />
    <path d="M 199.51643 81.62089 L 203.19128 84.51994" />
    <path d="M 147.80333 83.66629 L 199.51643 81.62089" />
    <path d="M 147.80333 83.66629 L 127.64983 87.6581" />
    <path d="M 191.00776 85.11967 L 155.87618 86.74575 L 166.70387 95.28757 L 191.00776 85.11967 Z" />
    <path d="M 203.19128 96.46116 L 203.19128 84.51994" />
    <path d="M 128.12465 91.66614 L 128.12465 88.03268" />
    <path d="M 102.60259 -123.7708 A 226 202.3953 103.46735 0 1 181.43984 -122.3645 A 226 202.3953 103.46735 0 1 76.17301 317.20676 A 226 202.3953 103.46735 0 1 -72.14542 145.55894" />
    <path d="M -74.13931 128.49293 A 226 202.3953 103.46735 0 1 102.60259 -123.7708" />
    <path d="M 96.97727 -125.11793 A 226 202.3953 283.46735 0 0 -79.98843 124.15518" />
    <path d="M -78.1498 141.64383 A 226 202.3953 283.46735 0 0 70.54769 315.85963" />
    <path d="M 175.81452 -123.71163 A 226 202.3953 283.46735 0 0 96.97727 -125.11793" />
    <path d="M -2.38734 161.24654 A 232 91.70756 360 0 1 -108.8189 84.13277 A 232 91.70756 360 0 1 -108.25286 77.73053" />
    <path d="M -2.38734 161.24654 L -2.38734 173.18777 L 0.36419 171.53736" />
    <path d="M -108.8189 96.074 A 232 91.70756 180 0 0 -2.38734 173.18777" />
    <path d="M -103.26129 77.84726 L -108.25286 77.73053" />
    <path d="M -103.26129 77.84726 L -103.26129 89.78849 A 227 89.7311 180 0 0 -103.31583 90.10339" />
    <path d="M -2.38734 161.24654 L 0.36419 159.59613 L 0.36419 171.53736" />
    <path d="M 0.36419 159.59613 A 227 89.7311 360 0 1 -103.8189 84.13277 A 227 89.7311 360 0 1 -103.26129 77.84726" />
    <path d="M -10.72843 -198.39545 L -10.72843 -210.33667 L 97.23181 -125.16817" />
    <path d="M -10.72843 -198.39545 L 85.50536 -122.4778" />
    <path d="M 106.42123 -126.74257 L -1.788 -212.10751 L -10.72843 -210.33667" />
    <path d="M 156.10163 122.0446 L 156.10163 110.10337 L 219.66248 97.51386 L 230.07456 105.72782 Q 235.26 109.82 233.99894 111.2433 Q 235.26 109.82 233.59454 112.72703 Q 231.93 115.64 223.54871 117.29667 Q 219.1 118.18 214.40039 117.85653 Q 209.7 117.53 205.64026 116.18062 Q 206.78 118.5 205.99374 117.58697 Q 206.78 118.5 204.24115 120.48405 Q 201.7 122.47 196.11373 123.57269 Q 187.56 125.27 179.89015 124.04432 Q 172.22 122.82 167.14805 118.81776 L 156.10163 110.10337" />
    <path d="M 167.14805 130.75899 L 156.10163 122.0446" />
    <path d="M 191.38835 136.23459 Q 187.56 137.21 179.89015 135.98554 L 179.89015 124.04432" />
    <path d="M 179.89015 135.98554 Q 172.22 134.76 167.14805 130.75899 L 167.14805 118.81776" />
    <path d="M 190.03013 119.46943 L 190.03013 107.5282 L 167.1552 112.05904 L 174.08929 117.52926 Q 177.02 119.84 181.74965 120.57801 Q 186.48 121.31 191.80472 120.25953 Q 203.29 117.99 199.23637 116.20054 Q 203.29 117.99 197.02984 113.05019 L 190.03013 107.5282" />
    <path d="M 191.18096 120.37731 L 190.03013 119.46943 L 183.41328 120.78003" />
    <path d="M 216.96491 114.13445 L 216.96491 102.19323 L 196.75291 106.19662 L 203.0964 111.20092 Q 205.85 113.38 210.25426 114.13331 Q 214.66 114.89 219.37066 113.95758 Q 224.61 112.92 225.45717 111.2408 Q 226.31 109.56 225.63803 110.48869 Q 226.31 109.56 223.17715 107.09399 L 216.96491 102.19323" />
    <path d="M 216.96491 114.13445 L 215.38532 114.44732" />
    <path d="M 217.17778 114.30238 L 216.96491 114.13445" />
    <path d="M 227.58662 158.53292 L 227.58662 146.5917 Q 216.91 148.12 208.29429 146.73204 Q 199.68 145.34 194.47068 141.23395 Q 188.83 136.78 191.38396 136.41439 Q 188.83 136.78 193.50181 132.49888 Q 198.18 128.22 211.70933 125.53545 L 217.82095 124.32492 Q 226.68 122.57 234.99146 122.48914 Q 243.3 122.41 249.81086 123.99037 Q 256.32 125.57 260.14957 128.59193 Q 265.22 132.6 263.50916 133.68758 Q 265.22 132.6 262.63349 136.13098 Q 260.04 139.67 250.54886 142.04356 L 246.32715 138.71312 Q 253.38 136.78 254.95473 134.66186 Q 256.53 132.55 255.46749 133.23771 Q 256.53 132.55 253.25217 129.9581 Q 249.23 126.78 241.00449 126.15563 Q 232.78 125.53 221.82438 127.6986 L 215.66911 128.91778 Q 205.32 130.97 201.37692 133.88593 Q 197.43 136.8 199.39067 136.86306 Q 197.43 136.8 201.32443 139.87643 Q 204.82 142.64 209.85947 143.48595 Q 214.89 144.33 223.36492 143.26125 L 227.58662 146.5917" />
    <path d="M 227.58662 158.53292 Q 216.91 160.06 208.29429 158.67327 L 208.29429 146.73204" />
    <path d="M 208.29429 158.67327 Q 199.68 157.28 194.47068 153.17518 L 194.47068 141.23395" />
    <path d="M 194.47068 153.17518 Q 188.83 148.72 191.38396 148.35562 L 191.38396 136.41439" />
    <path d="M 263.50916 145.62881 Q 265.22 144.54 262.63349 148.07221 L 262.63349 136.13098" />
    <path d="M 250.54886 153.98479 L 250.54886 142.04356" />
    <path d="M 262.63349 148.07221 Q 260.04 151.61 250.54886 153.98479 L 246.32715 150.65434 L 246.32715 138.71312" />
    <path d="M 246.32715 138.86642 Q 249.23 138.72 241.00449 138.09685 L 241.00449 126.15563" />
    <path d="M 241.00449 138.09685 Q 232.78 137.47 221.82438 139.63983 L 221.82438 127.6986" />
    <path d="M 221.82438 139.63983 L 215.66911 140.859 L 215.66911 128.91778" />
    <path d="M 215.66911 140.859 Q 205.32 142.91 207.45151 142.94605" />
    <path d="M 233.59454 122.51441 L 233.59454 112.72703" />
    <path d="M 223.54871 123.35727 L 223.54871 117.29667" />
    <path d="M 214.40039 125.00243 L 214.40039 117.85653" />
    <path d="M 204.24115 127.33049 L 204.24115 120.48405" />
    <path d="M 196.11373 130.61758 L 196.11373 123.57269" />
    <path d="M 197.02984 118.68877 L 197.02984 113.05019" />
    <path d="M 223.17715 112.90156 L 223.17715 107.09399" />
    <path d="M 253.25217 136.07761 L 253.25217 129.9581" />
    <path d="M 201.37692 139.91766 L 201.37692 133.88593" />
    <path d="M 181.43984 -122.3645 L 175.81452 -123.71163" />
    <path d="M 76.17301 317.20676 L 70.54769 315.85963" />
    <path d="M -108.8189 84.13277 L -108.8189 96.074" />
    <path d="M 233.99894 122.50469 L 233.99894 111.2433" />
    <path d="M 205.99374 126.84239 L 205.99374 117.58697" />
    <path d="M 263.50916 145.62881 L 263.50916 133.68758" />
</svg>