<svg version="1.1" xmlns="http://www.w3.org/2000/svg" viewBox="-391.31157829119564 -13.01390760489104 720.2452497087961 25.874401814264246" fill="none" stroke="black" stroke-width="0.6%" vector-effect="non-scaling-stroke">
    <path d="M -339.97129 -3.10124 L -339.97129 -4.24575 L -335.60603 -3.35181 L -272.91961 -2.95322 L -214.59845 -3.44856 L -218.96372 -4.34249 L -281.65013 -4.74109 L -339.97129 -4.24575" />
    <path d="M -335.60603 -3.09425 L -335.60603 -3.35181" />
    <path d="M -272.91961 -2.86805 L -272.91961 -2.95322" />
    <path d="M -214.59845 -2.39489 L -214.59845 -3.44856" />
    <path d="M -390.31158 -2.94346 L -390.31158 10.05548 A 232 2.96853 180 0 0 -187.45901 11.40721" />
    <path d="M -178.68522 -1.59782 A 232 2.96853 0 0 1 -390.31158 -2.94346" />
    <path d="M -178.68522 -1.59782 L -178.68522 -1.42129" />
    <path d="M -386.14553 -2.97884 L -390.31158 -2.94346" />
    <path d="M -178.68522 -1.59782 L -178.99705 -1.66168 A 227 2.90455 0 0 1 -386.14553 -2.97884" />
    <path d="M 304.32125 5.16367 A 226 2.89175 180 0 0 327.93367 3.87678 L 327.93367 -9.12215 A 226 2.89175 0 0 1 304.32125 -7.83526 A 226 2.89175 0 0 1 -124.06633 -9.12215 A 226 2.89175 0 0 1 327.93367 -9.12215" />
    <path d="M 22.64556 6.58473 A 226 2.89175 180 0 0 304.32125 5.16367" />
    <path d="M 124.32168 -8.9798 A 25 0.31988 0 0 1 76.93367 -9.12215 A 25 0.31988 0 0 1 126.93367 -9.12215 A 25 0.31988 0 0 1 124.32168 -8.9798 Z" />
    <path d="M -187.45901 11.80355 L -187.45901 -1.19538 L -178.50381 -1.13844 L 22.64556 -6.31769 L 13.69036 -6.37463 L -187.45901 -1.19538" />
    <path d="M -178.50381 11.86049 L -178.50381 -1.13844" />
    <path d="M -187.45901 11.80355 L -178.50381 11.86049 L 22.64556 6.68124 L 22.64556 -6.31769" />
    <path d="M -171.94464 -1.76729 L -171.94464 -1.59485" />
    <path d="M -383.57099 -3.11293 A 232 2.96853 0 0 1 -171.94464 -1.76729" />
    <path d="M -383.57099 -3.11293 L -383.57099 -2.92913" />
    <path d="M -176.11068 -1.73191 L -171.94464 -1.76729" />
    <path d="M -176.11068 -1.73191 L -176.11068 -1.48758" />
    <path d="M -383.57099 -3.11293 L -383.25917 -3.04907 L -383.25917 -2.92326" />
    <path d="M -383.25917 -3.04907 A 227 2.90455 0 0 1 -176.11068 -1.73191" />
    <path d="M -124.06633 -2.82764 L -124.06633 -9.12215" />
</svg>