<svg version="1.1" xmlns="http://www.w3.org/2000/svg" viewBox="-21.864577636400075 -10.963994695054497 58.721899843011784 21.74848584519394" fill="none" stroke="black" stroke-width="0.6%" vector-effect="non-scaling-stroke">
    <path d="M 31.96158 -0.20678 A 232 9.69366 360 0 1 -20.86458 -6.36474 A 232 9.69366 360 0 1 -4.27957 -9.96399" />
    <path d="M 31.96158 -0.20678 L 31.96158 9.78449 L 35.85732 9.65351" />
    <path d="M -20.86458 3.62653 A 232 9.69366 180 0 0 31.96158 9.78449" />
    <path d="M 0.383 -9.88851 L -4.27957 -9.96399" />
    <path d="M 0.383 -9.88851 L 0.383 -2.84096" />
    <path d="M 31.96158 -0.20678 L 35.85732 -0.33775 L 35.85732 9.65351" />
    <path d="M 35.85732 -0.33775 A 227 9.48474 360 0 1 -15.86458 -6.36474 A 227 9.48474 360 0 1 0.383 -9.88851" />
    <path d="M -20.86458 -6.36474 L -20.86458 3.62653" />
</svg>